<svg width="55" height="55" viewBox="0 0 55 55" fill="none" xmlns="http://www.w3.org/2000/svg">
<rect width="55" height="55" rx="27.5" fill="#F8F8F9"/>
<path fill-rule="evenodd" clip-rule="evenodd" d="M25.3811 21.125H36.1875C36.7743 21.125 37.25 21.6007 37.25 22.1875C37.25 22.7743 36.7743 23.25 36.1875 23.25H25.3811C24.9435 24.488 23.7629 25.375 22.375 25.375C20.9871 25.375 19.8065 24.488 19.3689 23.25H17.0625C16.4757 23.25 16 22.7743 16 22.1875C16 21.6007 16.4757 21.125 17.0625 21.125H19.3689C19.8065 19.887 20.9871 19 22.375 19C23.7629 19 24.9435 19.887 25.3811 21.125ZM21.3125 22.1875C21.3125 22.7743 21.7882 23.25 22.375 23.25C22.9618 23.25 23.4375 22.7743 23.4375 22.1875C23.4375 21.6007 22.9618 21.125 22.375 21.125C21.7882 21.125 21.3125 21.6007 21.3125 22.1875ZM33.8811 31.75H36.1875C36.7743 31.75 37.25 32.2257 37.25 32.8125C37.25 33.3993 36.7743 33.875 36.1875 33.875H33.8811C33.4435 35.113 32.2629 36 30.875 36C29.4871 36 28.3065 35.113 27.8689 33.875H17.0625C16.4757 33.875 16 33.3993 16 32.8125C16 32.2257 16.4757 31.75 17.0625 31.75H27.8689C28.3065 30.512 29.4871 29.625 30.875 29.625C32.2629 29.625 33.4435 30.512 33.8811 31.75ZM29.8125 32.8125C29.8125 33.3993 30.2882 33.875 30.875 33.875C31.4618 33.875 31.9375 33.3993 31.9375 32.8125C31.9375 32.2257 31.4618 31.75 30.875 31.75C30.2882 31.75 29.8125 32.2257 29.8125 32.8125Z" fill="#12131A"/>
</svg>
